<?xml version="1.0" encoding="UTF-8"?>
<svg width="40px" height="40px" viewBox="0 0 40 40" version="1.1" xmlns="http://www.w3.org/2000/svg" xmlns:xlink="http://www.w3.org/1999/xlink">
    <!-- Generator: Sketch 43.2 (39069) - http://www.bohemiancoding.com/sketch -->
    <title>Shape</title>
    <desc>Created with Sketch.</desc>
    <defs></defs>
    <g id="Page-1" stroke="none" stroke-width="1" fill="none" fill-rule="evenodd">
        <g id="Portfolio-landing" transform="translate(-700.000000, -30.000000)" fill="#F48E5C">
            <path d="M730.053763,30.1612903 L729.623656,30 L719.946237,30 L719.301075,30.6451613 L719.301075,39.6774194 L710.268817,39.6774194 L709.83871,39.8387097 L700.16129,49.516129 L700.16129,50.4301075 L704.569892,54.8387097 L700.16129,59.2473118 L700,59.6774194 L700,69.3548387 L700.645161,70 L710.322581,70 L710.752688,69.8387097 L720.430108,60.1612903 L720.430108,59.2473118 L711.182796,49.9462366 L719.946237,41.1827957 L723.870968,45.1075269 L719.462366,49.516129 L719.462366,50.4301075 L729.139785,60.1075269 L729.569892,60.2688172 L739.247312,60.2688172 L739.677419,59.1935484 L730.537634,49.9462366 L739.784946,40.6989247 L739.784946,39.8387097 L730.053763,30.1612903 Z M729.892473,39.6774194 L721.451613,31.2365591 L729.354839,31.2365591 L737.795699,39.6774194 L729.892473,39.6774194 Z M708.655914,58.9247312 L709.354839,59.6236559 L701.182796,67.7956989 L701.182796,59.8924731 L705.430108,55.6989247 L708.655914,58.9247312 Z M702.096774,68.7096774 L710.537634,60.2688172 L718.44086,60.2688172 L710,68.7096774 L702.096774,68.7096774 Z M710.537634,59.0322581 L709.569892,58.0645161 L702.096774,50.5913978 L710,50.5913978 L718.44086,59.0322581 L710.537634,59.0322581 Z M702.096774,49.3548387 L710.537634,40.9139785 L718.44086,40.9139785 L710,49.3548387 L702.096774,49.3548387 Z M720.591398,32.1505376 L728.709677,40.2688172 L728.010753,40.9677419 L724.784946,44.1935484 L720.591398,40.0537634 L720.591398,32.1505376 Z M729.892473,59.0322581 L721.451613,50.5913978 L729.354839,50.5913978 L737.795699,59.0322581 L729.892473,59.0322581 Z M721.451613,49.3548387 L728.924731,41.8817204 L729.892473,40.9139785 L737.795699,40.9139785 L729.354839,49.3548387 L721.451613,49.3548387 Z" id="Shape"></path>
        </g>
    </g>
</svg>