<?xml version="1.0" encoding="UTF-8"?>
<svg width="300px" height="146px" viewBox="0 0 300 146" version="1.1" xmlns="http://www.w3.org/2000/svg" xmlns:xlink="http://www.w3.org/1999/xlink">
    <!-- Generator: Sketch 43.2 (39069) - http://www.bohemiancoding.com/sketch -->
    <title>sunroof_logo_name</title>
    <desc>Created with Sketch.</desc>
    <defs></defs>
    <g id="Page-1" stroke="none" stroke-width="1" fill="none" fill-rule="evenodd">
        <g id="Landing" transform="translate(-570.000000, -304.000000)">
            <g id="sunroof_logo_name" transform="translate(570.000000, 305.000000)">
                <path d="M88.1151832,0.315217391 L86.8586387,-0.157608696 L58.5863874,-0.157608696 L56.7015707,1.73369565 L56.7015707,28.2119565 L30.3141361,28.2119565 L29.0575916,28.6847826 L0.785340314,57.0543478 L0.785340314,59.7336957 L13.6649215,72.6576087 L0.785340314,85.5815217 L0.314136126,86.8423913 L0.314136126,115.211957 L2.19895288,117.103261 L30.4712042,117.103261 L31.7277487,116.630435 L60,88.2608696 L60,85.5815217 L32.9842932,58.3152174 L58.5863874,32.625 L70.052356,44.1304348 L57.1727749,57.0543478 L57.1727749,59.7336957 L85.4450262,88.1032609 L86.7015707,88.576087 L114.973822,88.576087 L116.230366,85.423913 L89.5287958,58.3152174 L116.544503,31.2065217 L116.544503,28.6847826 L88.1151832,0.315217391 Z M87.6439791,28.2119565 L62.9842932,3.4673913 L86.0732984,3.4673913 L110.732984,28.2119565 L87.6439791,28.2119565 Z M25.6020942,84.6358696 L27.6439791,86.6847826 L3.76963351,110.641304 L3.76963351,87.4728261 L16.1780105,75.1793478 L25.6020942,84.6358696 Z M6.43979058,113.320652 L31.0994764,88.576087 L54.1884817,88.576087 L29.5287958,113.320652 L6.43979058,113.320652 Z M31.0994764,84.951087 L28.2722513,82.1141304 L6.43979058,60.2065217 L29.5287958,60.2065217 L54.1884817,84.951087 L31.0994764,84.951087 Z M6.43979058,56.5815217 L31.0994764,31.8369565 L54.1884817,31.8369565 L29.5287958,56.5815217 L6.43979058,56.5815217 Z M60.4712042,6.14673913 L84.1884817,29.9456522 L82.1465969,31.9945652 L72.7225131,41.451087 L60.4712042,29.3152174 L60.4712042,6.14673913 Z M87.6439791,84.951087 L62.9842932,60.2065217 L86.0732984,60.2065217 L110.732984,84.951087 L87.6439791,84.951087 Z M62.9842932,56.5815217 L84.8167539,34.673913 L87.6439791,31.8369565 L110.732984,31.8369565 L86.0732984,56.5815217 L62.9842932,56.5815217 Z" id="Shape" fill="#F68E56"></path>
                <g id="SUNROOF" stroke-width="1" transform="translate(58.115183, 100.869565)" fill="#414042">
                    <path d="M6.59685864,43.8152174 C3.14136126,43.8152174 0.471204188,40.9782609 0.471204188,37.6684783 L0.471204188,30.4184783 L6.59685864,30.4184783 L6.59685864,38.7717391 L13.5078534,38.7717391 L13.5078534,29.9456522 L1.57068063,16.2336957 C0.942408377,15.2880435 0.314136126,13.7119565 0.314136126,12.1358696 L0.314136126,6.61956522 C0.314136126,3.15217391 3.14136126,0.472826087 6.43979058,0.472826087 L13.3507853,0.472826087 C16.8062827,0.472826087 19.4764398,3.30978261 19.4764398,6.61956522 L19.4764398,10.5597826 L13.3507853,10.5597826 L13.3507853,5.51630435 L6.43979058,5.51630435 L6.43979058,12.7663043 L18.3769634,26.4782609 C19.3193717,27.5815217 19.4764398,29.1576087 19.4764398,30.4184783 L19.4764398,37.5108696 C19.4764398,40.9782609 16.8062827,43.6576087 13.3507853,43.6576087 L6.59685864,43.6576087 L6.59685864,43.8152174 Z" id="Shape"></path>
                    <path d="M42.8795812,43.3423913 C39.4240838,43.3423913 36.7539267,40.5054348 36.7539267,37.1956522 L36.7539267,0.315217391 L42.8795812,0.315217391 L42.8795812,38.298913 L51.3612565,38.298913 L51.3612565,0.315217391 L57.486911,0.315217391 L57.486911,37.1956522 C57.486911,40.6630435 54.6596859,43.3423913 51.3612565,43.3423913 L42.8795812,43.3423913 L42.8795812,43.3423913 Z" id="Shape"></path>
                    <path d="M88.4293194,43.3423913 L88.4293194,5.51630435 L79.7905759,5.51630435 L79.7905759,43.3423913 L73.6649215,43.3423913 L73.6649215,0.315217391 L79.7905759,0.315217391 L79.7905759,3.4673913 C80.7329843,1.26086957 81.9895288,0.315217391 84.8167539,0.315217391 L88.5863874,0.315217391 C92.0418848,0.315217391 94.7120419,3.15217391 94.7120419,6.46195652 L94.7120419,43.3423913 L88.4293194,43.3423913 L88.4293194,43.3423913 Z" id="Shape"></path>
                    <path d="M125.340314,43.3423913 L121.099476,25.5326087 L116.544503,25.5326087 L116.544503,43.3423913 L110.418848,43.3423913 L110.418848,0.315217391 L124.397906,0.315217391 C127.853403,0.315217391 130.52356,3.15217391 130.52356,6.46195652 L130.52356,19.2282609 C130.52356,21.5923913 129.109948,23.798913 127.068063,24.7445652 L131.780105,43.3423913 L125.340314,43.3423913 L125.340314,43.3423913 Z M124.397906,5.51630435 L116.701571,5.51630435 L116.701571,20.4891304 L124.397906,20.4891304 L124.397906,5.51630435 L124.397906,5.51630435 Z" id="Shape"></path>
                    <path d="M153.926702,43.8152174 C150.471204,43.8152174 147.801047,40.9782609 147.801047,37.6684783 L147.801047,6.46195652 C147.801047,2.99456522 150.628272,0.315217391 153.926702,0.315217391 L162.408377,0.315217391 C165.863874,0.315217391 168.534031,3.15217391 168.534031,6.46195652 L168.534031,37.6684783 C168.534031,41.1358696 165.706806,43.8152174 162.408377,43.8152174 L153.926702,43.8152174 L153.926702,43.8152174 Z M162.408377,5.35869565 L153.926702,5.35869565 L153.926702,38.6141304 L162.408377,38.6141304 L162.408377,5.35869565 L162.408377,5.35869565 Z" id="Shape"></path>
                    <path d="M190.837696,43.8152174 C187.382199,43.8152174 184.712042,40.9782609 184.712042,37.6684783 L184.712042,6.46195652 C184.712042,2.99456522 187.539267,0.315217391 190.837696,0.315217391 L199.319372,0.315217391 C202.774869,0.315217391 205.445026,3.15217391 205.445026,6.46195652 L205.445026,37.6684783 C205.445026,41.1358696 202.617801,43.8152174 199.319372,43.8152174 L190.837696,43.8152174 L190.837696,43.8152174 Z M199.47644,5.35869565 L190.994764,5.35869565 L190.994764,38.6141304 L199.47644,38.6141304 L199.47644,5.35869565 L199.47644,5.35869565 Z" id="Shape"></path>
                    <polygon id="Shape" points="229.790576 43.3423913 223.664921 43.3423913 223.664921 0.315217391 240.942408 0.315217391 240.942408 5.51630435 229.947644 5.51630435 229.947644 20.4891304 239.057592 20.4891304 239.057592 25.8478261 229.947644 25.8478261 229.947644 43.3423913"></polygon>
                </g>
            </g>
        </g>
    </g>
</svg>